<svg width="151" height="151" viewBox="0 0 151 151" fill="none" xmlns="http://www.w3.org/2000/svg">
<path fill-rule="evenodd" clip-rule="evenodd" d="M68.2417 80.4401C69.3417 80.4401 71.5267 80.3801 74.5517 79.1351C78.0767 77.6851 85.0817 75.0501 90.1417 72.3451C93.6767 70.4551 95.2267 67.9501 95.2267 64.5851C95.2267 59.9101 91.4367 56.1201 86.7617 56.1201H67.1717C60.4567 56.1201 55.0117 61.5651 55.0117 68.2801C55.0117 74.9951 60.1117 80.4401 68.2467 80.4401H68.2417Z" fill="white"/>
<path fill-rule="evenodd" clip-rule="evenodd" d="M71.5566 88.8148C71.5566 85.5248 73.5366 82.5548 76.5816 81.2948L82.7516 78.7348C88.9916 76.1448 95.8616 80.7297 95.8616 87.4897C95.8616 92.7248 91.6166 96.9697 86.3816 96.9647H79.7016C75.2066 96.9647 71.5566 93.3148 71.5566 88.8198V88.8148Z" fill="white"/>
<path d="M62.0159 82.04C58.1459 82.04 55.0059 85.18 55.0059 89.05V89.96C55.0059 93.83 58.1459 96.97 62.0159 96.97C65.8859 96.97 69.0259 93.83 69.0259 89.96V89.05C69.0259 85.18 65.8859 82.04 62.0159 82.04Z" fill="white"/>
</svg>
