<svg width="150" height="151" viewBox="0 0 150 151" fill="none" xmlns="http://www.w3.org/2000/svg">
<path d="M71.7194 73.2789C72.4944 69.9889 73.2644 66.7289 74.0344 63.4689C74.0694 63.3289 74.1044 63.1939 74.1494 63.0539C74.2394 62.7639 74.4494 62.6089 74.7444 62.5939C75.3044 62.5689 75.8694 62.5639 76.4294 62.5939C76.7194 62.6089 76.8944 62.7839 76.9844 63.0539C77.1044 63.4189 77.1744 63.7939 77.2594 64.1639C77.9844 67.2189 78.7044 70.2739 79.4244 73.3389C79.5044 73.3089 79.4894 73.2289 79.5044 73.1739C80.2894 70.1539 81.0644 67.1289 81.8494 64.1089C81.9444 63.7389 82.0194 63.3639 82.1644 63.0089C82.2744 62.7389 82.4694 62.5939 82.7544 62.5889C83.3044 62.5789 83.8544 62.5789 84.4044 62.5839C84.6094 62.5839 84.7144 62.7089 84.7244 62.9189C84.7344 63.0939 84.6944 63.2639 84.6394 63.4289C83.4194 67.3339 82.1994 71.2389 80.9794 75.1439C80.9394 75.2689 80.8944 75.3889 80.8444 75.5139C80.7344 75.8039 80.5094 75.9489 80.2094 75.9539C79.6544 75.9639 79.0994 75.9639 78.5444 75.9539C78.2294 75.9489 78.0294 75.7639 77.9444 75.4739C77.8344 75.0889 77.7444 74.6989 77.6544 74.3139C76.9594 71.4239 76.2644 68.5339 75.5694 65.6439C75.5644 65.6189 75.5494 65.5889 75.5244 65.5239C75.3794 66.1289 75.2444 66.6989 75.1094 67.2639C74.4794 69.8989 73.8494 72.5339 73.2144 75.1739C73.0544 75.8389 72.8944 75.9539 72.2094 75.9539C71.8344 75.9539 71.4544 75.9539 71.0794 75.9539C70.5144 75.9539 70.3394 75.8389 70.1644 75.2939C69.8844 74.4189 69.6244 73.5439 69.3544 72.6639C68.4244 69.6039 67.4944 66.5439 66.5644 63.4839C66.5194 63.3289 66.4794 63.1739 66.4544 63.0139C66.4144 62.7389 66.5444 62.5839 66.8144 62.5839C67.3544 62.5839 67.8894 62.5839 68.4294 62.5839C68.7544 62.5839 68.9694 62.7389 69.0794 63.0389C69.2694 63.5539 69.3744 64.0939 69.5094 64.6239C70.2294 67.4439 70.9444 70.2689 71.6644 73.0939C71.6794 73.1439 71.6944 73.1939 71.7194 73.2689V73.2789Z" fill="white"/>
<path d="M75.1495 89.2992C70.8845 89.2992 67.0545 88.6392 63.3495 87.2992C59.8645 86.0392 56.6795 84.2392 53.7945 81.9092C53.3445 81.5442 52.9045 81.1642 52.4695 80.7842C52.4545 80.7742 52.4445 80.7592 52.4295 80.7492C52.2245 80.5492 52.1795 80.3192 52.3095 80.1442C52.4345 79.9792 52.6695 79.9442 52.9145 80.0742C53.4595 80.3692 53.9995 80.6792 54.5495 80.9642C57.3595 82.4342 60.2995 83.5742 63.3595 84.4142C65.1395 84.9042 66.9395 85.2842 68.7645 85.5542C70.0945 85.7492 71.4295 85.8892 72.7695 85.9692C74.0145 86.0442 75.2645 86.0642 76.5145 86.0342C78.0795 85.9992 79.6395 85.8592 81.1895 85.6492C84.7545 85.1642 88.2145 84.2642 91.5695 82.9542C91.9095 82.8192 92.2445 82.6792 92.5795 82.5442C92.8195 82.4492 93.0545 82.4342 93.2895 82.5542C93.6745 82.7542 93.7495 83.2042 93.4545 83.5342C93.2595 83.7492 93.0095 83.8942 92.7745 84.0592C90.5095 85.6242 88.0345 86.7592 85.4245 87.6092C83.3445 88.2892 81.2145 88.7592 79.0445 89.0392C77.6445 89.2192 76.2395 89.3192 75.1545 89.3092L75.1495 89.2992Z" fill="white"/>
<path d="M62.6897 74.229C62.4247 74.519 62.1597 74.794 61.8647 75.039C60.7347 75.969 59.4247 76.354 57.9747 76.294C57.2147 76.264 56.4947 76.104 55.8447 75.694C54.7947 75.034 54.2597 74.054 54.1397 72.839C54.0547 71.969 54.1497 71.119 54.5797 70.339C55.1597 69.274 56.0847 68.634 57.2297 68.299C58.2147 68.009 59.2197 67.999 60.2297 68.099C60.9547 68.169 61.6697 68.304 62.3797 68.464C62.4347 68.479 62.5297 68.534 62.5247 68.394C62.5147 67.699 62.5647 66.999 62.4297 66.304C62.1847 65.074 61.5647 64.519 60.3197 64.349C58.9347 64.159 57.6247 64.434 56.3397 64.904C56.0697 65.004 55.8097 65.114 55.5347 65.199C55.1847 65.309 55.0197 65.184 55.0097 64.819C54.9997 64.519 55.0097 64.224 55.0097 63.924C55.0097 63.604 55.1597 63.389 55.4397 63.239C55.9047 62.994 56.3947 62.809 56.8947 62.654C58.3647 62.204 59.8597 62.104 61.3747 62.349C62.1297 62.474 62.8447 62.719 63.4597 63.194C64.3147 63.859 64.7096 64.779 64.8946 65.814C64.9796 66.299 65.0046 66.784 65.0046 67.274C65.0046 68.799 64.9996 70.319 65.0046 71.844C65.0046 72.199 65.0447 72.559 65.0947 72.909C65.1647 73.464 65.4197 73.949 65.6697 74.439C65.8646 74.824 65.8097 75.049 65.4547 75.289C65.1647 75.489 64.8696 75.684 64.5746 75.874C64.2046 76.114 63.9347 76.074 63.6397 75.749C63.3347 75.409 63.0947 75.029 62.8897 74.619C62.8247 74.494 62.7597 74.364 62.6897 74.224V74.229ZM60.2697 69.844C59.5597 69.824 59.0697 69.839 58.5897 69.944C57.7847 70.124 57.1547 70.519 56.8747 71.344C56.7297 71.774 56.7297 72.224 56.7847 72.669C56.8897 73.499 57.4497 74.129 58.2697 74.264C59.3147 74.434 60.3047 74.249 61.1997 73.679C61.8397 73.269 62.2897 72.709 62.4397 71.939C62.5447 71.389 62.5547 70.839 62.5497 70.284C62.5497 70.199 62.5097 70.174 62.4347 70.159C61.6497 69.974 60.8497 69.869 60.2647 69.849L60.2697 69.844Z" fill="white"/>
<path d="M90.9487 62.2042C91.9587 62.1992 92.9437 62.3742 93.8987 62.7042C94.0737 62.7642 94.2387 62.8442 94.4037 62.9292C94.8187 63.1492 95.0337 63.4742 94.9987 63.9592C94.9837 64.1792 94.9987 64.3992 94.9837 64.6192C94.9537 64.9392 94.7937 65.0492 94.4837 64.9692C94.1687 64.8892 93.8887 64.7192 93.5837 64.6192C92.3437 64.2092 91.0887 64.0942 89.8087 64.3892C89.6537 64.4242 89.5037 64.4892 89.3537 64.5492C88.2237 65.0342 88.1737 66.6092 89.1037 67.2242C89.6387 67.5792 90.2337 67.7792 90.8337 67.9792C91.6987 68.2642 92.5837 68.4842 93.4287 68.8392C94.2037 69.1692 94.8687 69.6292 95.2987 70.3842C96.1737 71.9092 95.7687 73.9542 94.3587 75.1242C93.6087 75.7492 92.7237 76.0842 91.7787 76.2442C90.0537 76.5392 88.3787 76.2942 86.7537 75.6842C86.5637 75.6142 86.3887 75.5142 86.2137 75.4042C85.9387 75.2342 85.8087 74.9892 85.7987 74.6742C85.7937 74.3992 85.7887 74.1242 85.7987 73.8492C85.8087 73.4742 86.0087 73.3292 86.3687 73.4442C86.8187 73.5892 87.2387 73.8042 87.6887 73.9392C88.8437 74.2742 90.0137 74.4092 91.2087 74.2442C91.6837 74.1792 92.1337 74.0342 92.5387 73.7592C93.4387 73.1492 93.5437 71.6392 92.4237 71.0192C91.9687 70.7692 91.4787 70.6042 90.9837 70.4442C90.1137 70.1592 89.2187 69.9492 88.3687 69.5842C87.2387 69.0992 86.4337 68.3042 86.0837 67.1092C85.6687 65.7142 86.1637 64.2392 87.3137 63.3292C88.2287 62.6042 89.2787 62.2792 90.4237 62.2092C90.5937 62.1992 90.7687 62.2092 90.9437 62.2092L90.9487 62.2042Z" fill="white"/>
<path d="M94.4449 79.084C95.2349 79.099 95.9999 79.154 96.7499 79.359C97.4649 79.559 97.6249 79.754 97.6249 80.494C97.6249 81.804 97.2849 83.039 96.7799 84.234C96.3049 85.359 95.6699 86.369 94.7499 87.189C94.6399 87.289 94.5249 87.384 94.3799 87.434C94.2649 87.469 94.1549 87.479 94.0599 87.389C93.9749 87.304 93.9649 87.194 94.0049 87.089C94.1399 86.729 94.2799 86.364 94.4199 86.004C94.7999 85.014 95.1649 84.019 95.3849 82.979C95.4749 82.559 95.5499 82.139 95.4849 81.704C95.4399 81.419 95.2899 81.224 95.0299 81.114C94.6149 80.934 94.1749 80.894 93.7349 80.874C92.6649 80.829 91.5999 80.914 90.5349 81.029C90.1949 81.064 89.8599 81.109 89.5199 81.144C89.3799 81.159 89.2349 81.149 89.1549 81.009C89.0749 80.864 89.1399 80.729 89.2449 80.619C89.4549 80.389 89.7299 80.249 89.9949 80.104C90.9299 79.594 91.9349 79.324 92.9849 79.184C93.4749 79.119 93.9699 79.099 94.4499 79.084H94.4449Z" fill="white"/>
</svg>
