<svg width="151" height="151" viewBox="0 0 151 151" fill="none" xmlns="http://www.w3.org/2000/svg">
<path d="M77.7641 97.1657C74.7241 97.1107 72.0991 96.0607 69.9691 93.8657C69.7591 93.6507 69.5641 93.5807 69.2791 93.6307C63.6391 94.6457 58.0841 91.0107 56.8391 85.1557C56.4741 83.4357 56.5441 81.7307 57.0341 80.0457C57.1191 79.7557 57.0991 79.5507 56.8891 79.2957C51.7841 73.0807 54.8291 63.8657 62.6341 61.8807C62.8991 61.8107 63.0141 61.6757 63.1041 61.4407C64.5291 57.7657 67.1491 55.4057 71.0041 54.5907C74.8341 53.7807 78.1891 54.8207 80.9841 57.5757C81.2391 57.8257 81.4591 57.9007 81.7941 57.8457C87.6441 56.8257 93.2841 60.8607 94.2341 66.7207C94.4941 68.3257 94.4191 69.9057 93.9541 71.4607C93.8641 71.7707 93.9291 71.9657 94.1241 72.2057C99.1991 78.3907 96.1391 87.6707 88.3841 89.6057C88.1241 89.6707 87.9941 89.7807 87.8991 90.0257C86.3641 93.9707 83.4941 96.3007 79.3341 97.0407C78.8191 97.1307 78.2891 97.1857 77.7541 97.1657H77.7641ZM73.4741 82.2057C73.3241 82.1107 73.1691 82.0107 73.0091 81.9157C69.8291 80.0757 66.6491 78.2207 63.4541 76.4057C62.7341 75.9957 62.4291 75.4707 62.4391 74.6457C62.4691 71.5857 62.4491 68.5257 62.4491 65.4657C62.4491 64.8057 62.4441 64.7907 61.8691 65.0707C58.9941 66.4607 57.3491 68.7557 57.1691 71.9257C56.9891 75.1107 58.3391 77.6407 61.0841 79.3007C63.8691 80.9857 66.7191 82.5707 69.5341 84.2057C69.7891 84.3507 69.9741 84.3307 70.2141 84.1907C71.1891 83.6157 72.1741 83.0557 73.1541 82.4857C73.2691 82.4157 73.4191 82.3807 73.4741 82.2057ZM73.2691 57.0907C72.6591 57.0707 72.0591 57.1607 71.4691 57.2907C68.0441 58.0257 65.3491 61.1157 65.2441 64.6257C65.1441 68.0357 65.2091 71.4557 65.1941 74.8707C65.1941 75.1257 65.3091 75.2607 65.5141 75.3807C66.4991 75.9407 67.4791 76.5107 68.4591 77.0707C68.9041 77.3257 68.9091 77.3207 68.9091 76.8007C68.9091 73.0607 68.9191 69.3207 68.9091 65.5757C68.9091 64.8107 69.1941 64.3007 69.8691 63.9157C72.5941 62.3707 75.2941 60.7857 78.0141 59.2307C78.3791 59.0207 78.3641 58.9057 78.0441 58.6757C76.6191 57.6407 75.0291 57.1157 73.2691 57.0907ZM77.4491 69.2407C77.6641 69.3707 77.7941 69.4557 77.9241 69.5307C81.1341 71.3907 84.3391 73.2557 87.5591 75.0957C88.2541 75.4907 88.5791 75.9907 88.5691 76.8107C88.5341 79.9007 88.5541 82.9907 88.5541 86.0857C88.5541 86.6757 88.5741 86.6957 89.1041 86.4407C91.9991 85.0557 93.6541 82.7457 93.8391 79.5557C94.0191 76.4657 92.7491 73.9507 90.1091 72.3157C87.2641 70.5507 84.3191 68.9407 81.4191 67.2607C81.2841 67.1807 81.1541 67.1007 80.9891 67.2007C79.8391 67.8657 78.6841 68.5307 77.4541 69.2407H77.4491ZM80.1791 82.8357C80.1791 82.3257 80.1791 81.8107 80.1791 81.3007C80.1791 80.8773 79.9891 80.774 79.6091 80.9907C76.3841 82.8507 73.1541 84.7057 69.9341 86.5707C69.4641 86.8407 68.9891 86.9707 68.4741 86.7507C68.2491 86.6557 68.0341 86.5207 67.8191 86.3957C65.1991 84.8857 62.5791 83.3707 59.9591 81.8607C59.5141 81.6057 59.5241 81.6107 59.4491 82.1207C59.3391 82.8507 59.3691 83.5807 59.4991 84.3007C60.4791 89.8707 66.4841 92.7507 71.4141 90.0007C74.2441 88.4207 77.0341 86.7657 79.8441 85.1507C80.0891 85.0107 80.1991 84.8507 80.1891 84.5607C80.1691 83.9857 80.1841 83.4107 80.1841 82.8357H80.1791ZM70.8341 68.6407C70.8341 69.2307 70.8441 69.8207 70.8341 70.4107C70.8291 70.7207 70.9041 70.8257 71.1891 70.6307C71.3191 70.5457 71.4591 70.4757 71.5891 70.3957C74.7641 68.5707 77.9391 66.7457 81.1041 64.9107C81.6991 64.5657 82.2641 64.5457 82.8541 64.9107C83.3691 65.2257 83.8991 65.5157 84.4241 65.8207C86.6391 67.1007 88.8591 68.3807 91.0741 69.6607C91.4941 69.9007 91.4991 69.8957 91.5541 69.4057C91.6141 68.8507 91.6241 68.2957 91.5691 67.7357C91.0241 62.0657 84.8741 58.6857 79.8591 61.3757C76.8941 62.9657 74.0191 64.7207 71.0991 66.3957C70.8941 66.5107 70.8191 66.6507 70.8241 66.8807C70.8341 67.4707 70.8241 68.0607 70.8241 68.6507L70.8341 68.6407ZM82.0991 80.3607H82.0941C82.0941 82.2057 82.0791 84.0557 82.1041 85.9007C82.1141 86.6857 81.8191 87.2057 81.1291 87.5957C78.4041 89.1407 75.7041 90.7257 72.9841 92.2807C72.6391 92.4757 72.6441 92.5807 72.9491 92.8057C74.2641 93.7657 75.7241 94.3307 77.3491 94.3907C82.0341 94.5757 85.7641 91.0257 85.8091 86.3407C85.8391 83.1257 85.8091 79.9157 85.8241 76.7007C85.8241 76.3907 85.7091 76.2307 85.4491 76.0857C84.4741 75.5407 83.5141 74.9757 82.5441 74.4157C82.1191 74.1707 82.1141 74.1757 82.1141 74.6757C82.1141 76.5707 82.1141 78.4607 82.1141 80.3557L82.0991 80.3607ZM80.1791 75.7357H80.1741C80.1741 74.9757 80.1591 74.2157 80.1791 73.4557C80.1841 73.1707 80.0941 73.0057 79.8491 72.8657C78.4991 72.1057 77.1491 71.3357 75.8091 70.5557C75.5791 70.4207 75.4041 70.4157 75.1741 70.5557C73.8391 71.3457 72.4991 72.1257 71.1491 72.8957C70.8941 73.0407 70.8241 73.2107 70.8291 73.4907C70.8441 75.0107 70.8491 76.5357 70.8341 78.0557C70.8341 78.3407 70.9141 78.5057 71.1641 78.6457C72.5141 79.4057 73.8641 80.1757 75.2041 80.9557C75.4341 81.0907 75.6091 81.0907 75.8391 80.9557C77.1741 80.1657 78.5141 79.3857 79.8641 78.6157C80.1191 78.4707 80.1941 78.3007 80.1891 78.0207C80.1691 77.2607 80.1841 76.5007 80.1841 75.7407L80.1791 75.7357Z" fill="white"/>
</svg>
