<svg width="103" height="38" viewBox="0 0 103 38" fill="none" xmlns="http://www.w3.org/2000/svg">
<g clip-path="url(#clip0_216_6776)">
<path d="M71.8708 23.876C71.4358 22.216 70.5558 20.8559 68.9558 20.1459C66.1908 18.9109 62.4708 19.401 60.3808 22.471C60.1958 22.741 60.1058 22.7209 59.9708 22.4359C59.6158 21.6859 59.0758 21.081 58.3908 20.621C55.8408 18.901 52.4258 19.271 50.2708 21.481C50.0358 21.721 49.8208 21.9809 49.6258 22.2559C49.5808 22.3209 49.5208 22.411 49.4158 22.376C49.2708 22.331 49.3808 22.236 49.3808 22.161C49.3658 21.576 49.4058 20.9959 49.3408 20.4059C49.3058 20.1009 49.2008 20.0709 48.9558 20.0759C48.2208 20.0859 47.4808 20.0959 46.7458 20.0759C46.4008 20.0659 46.3058 20.171 46.3108 20.516C46.3258 23.211 46.3208 25.911 46.3208 28.606H46.3108C46.3108 31.316 46.3158 34.026 46.3008 36.736C46.3008 37.091 46.4108 37.1759 46.7458 37.1709C47.5308 37.1509 48.3208 37.1509 49.1058 37.1709C49.4408 37.181 49.5508 37.091 49.5508 36.736C49.5358 33.716 49.5458 30.6909 49.5408 27.6709C49.5408 26.9409 49.6408 26.2259 49.9158 25.5459C50.6208 23.7959 51.9908 22.3109 54.3258 22.4659C55.9458 22.5759 56.8958 23.2509 57.3758 24.7959C57.5658 25.4109 57.6308 26.046 57.6358 26.681C57.6458 30.026 57.6458 33.376 57.6358 36.721C57.6358 37.096 57.7508 37.181 58.1008 37.1709C58.8758 37.146 59.6508 37.146 60.4208 37.1709C60.7758 37.181 60.8858 37.091 60.8808 36.721C60.8658 33.726 60.8808 30.726 60.8658 27.731C60.8658 26.896 60.9958 26.0859 61.3358 25.3259C62.1058 23.6259 63.4908 22.3459 65.6008 22.4659C67.3858 22.5659 68.5158 23.496 68.8158 25.221C68.9158 25.811 68.9708 26.4059 68.9708 27.0059C68.9658 30.2509 68.9708 33.501 68.9558 36.746C68.9558 37.071 69.0358 37.181 69.3708 37.166C70.1708 37.141 70.9708 37.141 71.7658 37.166C72.1208 37.176 72.2008 37.0609 72.2008 36.726C72.1858 33.281 72.1858 29.831 72.1858 26.386C72.1858 25.531 72.0908 24.6909 71.8758 23.8659L71.8708 23.876Z" fill="white"/>
<path d="M25.2608 23.8162C25.2108 23.8162 25.1608 23.8262 25.1108 23.8312C24.8108 23.8312 24.5158 23.8312 24.2158 23.8312C24.1158 23.8312 24.0108 23.8312 23.9108 23.8312C23.3158 23.8312 22.7158 23.8312 22.1208 23.8312C19.4008 23.8312 16.6858 23.8212 13.9658 23.8162C13.7308 23.8162 13.7108 23.9462 13.7108 24.1262C13.7108 24.9012 13.7208 25.6712 13.7108 26.4462C13.7058 26.7362 13.7808 26.8362 14.0858 26.8312C15.0708 26.8112 16.0558 26.8312 17.0408 26.8212C17.9858 26.8212 18.9358 26.8062 19.8808 26.8012C20.0458 26.8012 20.2158 26.8012 20.3808 26.8012C20.5408 26.8362 20.6958 26.8362 20.8558 26.8012C21.4508 26.8012 22.0458 26.8012 22.6358 26.8062C22.6608 26.8112 22.6858 26.8212 22.7108 26.8262C22.7008 27.7462 22.4508 28.6112 22.1158 29.4562C21.7808 30.2962 21.3258 31.0712 20.7408 31.7662C20.5458 31.9312 20.3358 32.0862 20.2258 32.3262L20.2108 32.3512C19.8258 32.4512 19.6308 32.8062 19.3158 33.0062C18.0358 33.8312 16.6858 34.4362 15.1358 34.5512C14.2358 34.6162 13.3308 34.6862 12.4458 34.5762C10.0858 34.2912 8.09585 33.2562 6.49085 31.4712C5.05585 29.8762 4.26085 28.0012 4.08085 25.8962C3.89085 23.6962 4.14584 21.5462 5.27585 19.5762C6.22584 17.9212 7.51085 16.5962 9.21585 15.7662C11.7858 14.5112 14.4608 14.4062 17.1558 15.3562C18.3758 15.7862 19.4908 16.4112 20.3408 17.4212C20.5158 17.6312 20.6558 17.6262 20.8508 17.4212C21.4408 16.8112 22.0408 16.2062 22.6508 15.6212C22.8708 15.4112 22.8458 15.2912 22.6458 15.0812C21.3908 13.7812 19.8558 12.9312 18.1708 12.3562C16.1908 11.6812 14.1508 11.4912 12.0658 11.7362C10.7408 11.8912 9.47585 12.2412 8.27085 12.7962C6.55085 13.5862 5.09085 14.7262 3.85085 16.1662C2.58085 17.6462 1.66585 19.3112 1.20085 21.2062C0.855846 22.6112 0.705846 24.0362 0.805846 25.4912C0.890846 26.7012 1.06585 27.8912 1.45585 29.0362C2.22585 31.2912 3.55085 33.1712 5.37585 34.7112C6.90585 36.0062 8.63085 36.8962 10.5858 37.3512C12.4908 37.7962 14.4158 37.8012 16.3358 37.5012C17.6658 37.2912 18.9358 36.8412 20.1208 36.1662C21.5958 35.3312 22.8458 34.2362 23.8308 32.8712C25.6858 30.3062 26.1508 27.3912 25.8508 24.3062C25.8008 23.7862 25.7808 23.7862 25.2508 23.8012L25.2608 23.8162Z" fill="white"/>
<path d="M96.1649 26.7317C96.1649 25.8867 96.1249 25.0467 95.9449 24.2117C95.7099 23.1217 95.2299 22.1517 94.4649 21.3667C92.7949 19.6467 90.6799 19.2967 88.4349 19.6967C86.7899 19.9867 85.4199 20.8317 84.4399 22.2367C84.3949 22.3017 84.3699 22.4217 84.2549 22.3817C84.1499 22.3467 84.1799 22.2367 84.1799 22.1517C84.1799 21.5667 84.1749 20.9767 84.1799 20.3917C84.1799 20.2117 84.1599 20.0817 83.9249 20.0817C83.0649 20.0917 82.1999 20.0817 81.3399 20.0817C81.1649 20.0817 81.0949 20.1517 81.0949 20.3267C81.1099 20.9767 81.1149 21.6217 81.1199 22.2717C81.1999 22.2417 81.2299 22.1967 81.2449 22.1417C81.2349 22.1967 81.1999 22.2417 81.1199 22.2717C81.1099 27.1867 81.1049 32.1067 81.0949 37.0217C81.0849 37.1317 81.1399 37.1817 81.2449 37.1667C82.2149 37.1667 83.1899 37.1667 84.1599 37.1667C84.2749 37.1817 84.3199 37.1317 84.3099 37.0217C84.2849 37.0217 84.2649 37.0267 84.2499 37.0367C84.2649 37.0317 84.2849 37.0267 84.3099 37.0217C84.3099 36.9017 84.3099 36.7767 84.3099 36.6567C84.3099 36.6317 84.3099 36.6017 84.3099 36.5767C84.3099 33.4067 84.3099 30.2317 84.3149 27.0617C84.3249 27.0417 84.3299 27.0167 84.3199 26.9967C84.3749 26.4617 84.5199 25.9517 84.7099 25.4517C84.8199 25.1617 85.0249 24.9117 85.0799 24.6017C85.1299 24.5467 85.1799 24.4967 85.2249 24.4417C85.6649 23.8867 86.1399 23.3567 86.7649 23.0067C88.0799 22.2667 89.4449 22.3617 90.8099 22.8317C91.4099 23.0367 91.8849 23.4217 92.2499 23.9667C92.8499 24.8567 92.9849 25.8667 92.9899 26.8867C93.0099 30.1717 92.9999 33.4517 92.9899 36.7367C92.9899 37.1017 93.0949 37.2017 93.4549 37.1917C94.2149 37.1667 94.9799 37.1617 95.7399 37.1917C96.0949 37.2017 96.1749 37.0817 96.1699 36.7467C96.1549 33.4117 96.1549 30.0817 96.1599 26.7467L96.1649 26.7317Z" fill="white"/>
<path d="M78.3255 20.4866C78.3255 20.1766 78.2405 20.0816 77.9255 20.0866C77.1255 20.1066 76.3255 20.1066 75.5305 20.0866C75.2205 20.0766 75.1205 20.1766 75.1205 20.4916C75.1355 21.6766 75.1205 22.8616 75.1205 24.0516C75.1205 28.2716 75.1205 32.4916 75.1055 36.7116C75.1055 37.0716 75.2055 37.1866 75.5705 37.1766C76.3455 37.1516 77.1205 37.1666 77.8905 37.1716C78.3705 37.1716 78.3705 37.1716 78.3705 36.7066C78.3705 34.0216 78.3705 31.3416 78.3705 28.6566C78.3505 28.6566 78.3355 28.6566 78.3155 28.6566C78.3155 25.9366 78.3155 23.2116 78.3205 20.4916L78.3255 20.4866Z" fill="white"/>
<path d="M102.011 28.6217H102.006C102.006 25.9117 102.006 23.2017 102.011 20.4967C102.011 20.1917 101.926 20.0717 101.606 20.0817C100.821 20.1017 100.031 20.1017 99.2457 20.0817C98.9257 20.0717 98.8557 20.1817 98.8507 20.4867C98.8257 22.5817 98.8507 24.6767 98.8057 26.7717C98.7357 30.1017 98.7907 33.4367 98.7807 36.7717C98.7807 37.0917 98.8957 37.1767 99.2007 37.1717C100.001 37.1567 100.801 37.1517 101.596 37.1717C101.931 37.1817 102.016 37.0767 102.011 36.7517C101.996 34.0417 102.006 31.3317 102.006 28.6267L102.011 28.6217Z" fill="white"/>
<path d="M70.1017 1.28613C69.2717 4.73613 67.2167 6.89113 63.6367 7.64113C67.4317 8.54113 69.5967 10.8211 70.1217 14.5911C70.5517 10.7711 72.8467 8.63113 76.4817 7.63113C72.9817 6.85113 70.9017 4.71113 70.1017 1.28613Z" fill="white"/>
<path d="M76.7561 11.9863C75.5611 11.8513 74.4511 13.1413 74.4811 14.2513C74.5211 15.5813 75.5511 16.4913 76.7261 16.4713C78.1711 16.4413 78.9611 15.5663 78.9761 14.2513C78.9911 12.9063 77.9611 11.9613 76.7511 11.9863H76.7561Z" fill="white"/>
<path d="M100.326 11.9767C99.2314 12.0317 98.1864 13.0017 98.1914 14.2217C98.1964 15.4517 99.2564 16.5267 100.441 16.4717C101.431 16.4267 102.731 15.6367 102.606 14.2167C102.751 12.9617 101.461 11.9217 100.326 11.9767Z" fill="white"/>
<path d="M70.1415 0.771484C70.1115 0.846484 70.0465 0.941483 70.1415 1.05148V0.771484Z" fill="white"/>
<path d="M43.6799 29.2359C44.0199 29.2359 44.1249 29.1109 44.1149 28.8059C44.0999 28.4459 44.0849 28.0809 44.0649 27.7209C43.9849 26.2559 43.6499 24.8559 42.9449 23.5659C42.1499 22.1059 41.0199 20.9709 39.4849 20.2759C38.1649 19.6759 36.7699 19.4909 35.3299 19.5609C32.6599 19.6909 30.5999 20.9009 29.0699 23.0509C28.1449 24.3509 27.6499 25.8109 27.4999 27.3959C27.2899 29.5859 27.5499 31.6809 28.6999 33.6009C29.7699 35.3859 31.2599 36.7159 33.2749 37.3009C35.8299 38.0409 38.3199 37.8909 40.6499 36.4409C41.8999 35.6609 42.9449 34.7059 43.6749 33.4159C43.8099 33.1759 43.7799 33.0709 43.5449 32.9559C42.8149 32.6059 42.0749 32.2609 41.3599 31.8809C41.0199 31.7009 40.8799 31.8159 40.6999 32.1009C39.4449 34.0959 37.6699 35.0409 35.2949 34.7059C32.8649 34.3659 30.8949 32.3159 30.7149 29.6609C30.6899 29.3309 30.7699 29.2059 31.1349 29.2109C33.2199 29.2309 35.3049 29.2209 37.3899 29.2209V29.2309C39.4899 29.2309 41.5849 29.2209 43.6849 29.2409L43.6799 29.2359ZM30.4949 26.6559C30.8299 25.3859 31.5999 24.2959 32.6299 23.5459C32.6299 23.5459 32.6699 23.5109 32.6899 23.4959L32.7149 23.4809C32.7499 23.4559 32.7899 23.4309 32.8249 23.4109C32.8299 23.4109 32.8349 23.4059 32.8399 23.4009L32.9199 23.3259C32.9199 23.3259 32.9649 23.3159 32.9899 23.3109C33.1049 23.2409 33.2249 23.1709 33.3499 23.1059C33.3799 23.0809 33.4049 23.0509 33.4349 23.0209C33.4549 23.0159 33.4749 23.0059 33.4949 22.9959C33.5699 22.9159 33.6499 22.8459 33.7399 22.7859C33.6549 22.8459 33.5749 22.9159 33.4949 22.9959C33.7249 22.9009 33.9599 22.8209 34.1949 22.7509C34.7449 22.5709 35.3299 22.4709 35.9449 22.4709C38.5399 22.4709 40.7299 24.2309 41.3799 26.6209L30.4999 26.6609L30.4949 26.6559Z" fill="white"/>
</g>
<defs>
<clipPath id="clip0_216_6776">
<rect width="102.5" height="37" fill="white" transform="translate(0.5 0.75)"/>
</clipPath>
</defs>
</svg>
