<svg width="111" height="31" viewBox="0 0 111 31" fill="none" xmlns="http://www.w3.org/2000/svg">
<g clip-path="url(#clip0_222_100487)">
<g clip-path="url(#clip1_222_100487)">
<path d="M34.4082 14.6727C34.4082 19.5777 37.5546 22.9977 41.9147 22.9977C46.2748 22.9977 49.4212 19.5777 49.4212 14.6727C49.4212 9.76766 46.2748 6.34766 41.9147 6.34766C37.5546 6.34766 34.4082 9.76766 34.4082 14.6727ZM46.5445 14.6727C46.5445 18.1827 44.6341 20.4552 41.9147 20.4552C39.1953 20.4552 37.2849 18.1827 37.2849 14.6727C37.2849 11.1627 39.1953 8.89016 41.9147 8.89016C44.6341 8.89016 46.5445 11.1627 46.5445 14.6727Z" fill="white"/>
<path d="M57.5223 22.9979C60.826 22.9979 62.7139 20.2079 62.7139 16.8554C62.7139 13.5029 60.826 10.7129 57.5223 10.7129C55.994 10.7129 54.8703 11.3204 54.1286 12.1979V10.9379H51.4316V26.8004H54.1286V21.5129C54.8703 22.3904 55.994 22.9979 57.5223 22.9979ZM54.0612 16.5179C54.0612 14.2904 55.3197 13.0754 56.9829 13.0754C58.9382 13.0754 59.9945 14.6054 59.9945 16.8554C59.9945 19.1054 58.9382 20.6354 56.9829 20.6354C55.3197 20.6354 54.0612 19.3979 54.0612 17.2154V16.5179Z" fill="white"/>
<path d="M70.0123 22.9979C72.3721 22.9979 74.2375 21.7604 75.069 19.6904L72.7542 18.8129C72.3946 20.0279 71.3383 20.7029 70.0123 20.7029C68.2817 20.7029 67.0681 19.4654 66.8658 17.4404H75.1365V16.5404C75.1365 13.3004 73.316 10.7129 69.8999 10.7129C66.4838 10.7129 64.2812 13.3904 64.2812 16.8554C64.2812 20.5004 66.6411 22.9979 70.0123 22.9979ZM69.8774 12.9854C71.5855 12.9854 72.3946 14.1104 72.417 15.4154H67.0007C67.4052 13.8179 68.484 12.9854 69.8774 12.9854Z" fill="white"/>
<path d="M77.1602 22.7504H79.8571V15.8204C79.8571 14.1329 81.0932 13.2329 82.3068 13.2329C83.7902 13.2329 84.3745 14.2904 84.3745 15.7529V22.7504H87.0714V14.9654C87.0714 12.4229 85.5881 10.7129 83.1159 10.7129C81.5877 10.7129 80.5313 11.4104 79.8571 12.1979V10.9379H77.1602V22.7504Z" fill="white"/>
<path d="M94.9705 6.59473L88.8574 22.7497H91.7117L93.0826 19.0597H100.05L101.443 22.7497H104.342L98.2293 6.59473H94.9705ZM96.5437 9.78973L99.1058 16.5397H94.0266L96.5437 9.78973Z" fill="white"/>
<path d="M108.972 6.6416H106.096V22.7966H108.972V6.6416Z" fill="white"/>
<path d="M27.8177 12.5286C28.4975 10.4858 28.2634 8.24795 27.1762 6.38983C25.5412 3.53983 22.2543 2.07358 19.0442 2.76358C17.6161 1.15295 15.5644 0.237014 13.4134 0.250139C10.1321 0.242639 7.22067 2.35764 6.21119 5.48326C4.10326 5.91545 2.28375 7.23639 1.21902 9.10858C-0.428178 11.9511 -0.0526649 15.5342 2.14797 17.9717C1.46811 20.0145 1.70222 22.2523 2.78943 24.1104C4.42446 26.9604 7.71136 28.4267 10.9215 27.7367C12.3486 29.3473 14.4013 30.2633 16.5523 30.2492C19.8355 30.2576 22.7478 28.1408 23.7573 25.0123C25.8652 24.5801 27.6847 23.2592 28.7494 21.387C30.3948 18.5445 30.0183 14.9642 27.8186 12.5267L27.8177 12.5286ZM16.5542 28.2889C15.2403 28.2908 13.9677 27.8305 12.9592 26.9876C13.0051 26.9633 13.0847 26.9192 13.1362 26.8873L19.1032 23.4373C19.4084 23.2639 19.5957 22.9386 19.5939 22.587V14.1654L22.1157 15.6233C22.1429 15.6364 22.1606 15.6626 22.1644 15.6926V22.6667C22.1606 25.768 19.6519 28.2823 16.5542 28.2889ZM4.48907 23.1298C3.83075 21.9917 3.59384 20.6576 3.81952 19.3629C3.86353 19.3892 3.94125 19.437 3.9965 19.4689L9.9635 22.9189C10.266 23.0961 10.6406 23.0961 10.944 22.9189L18.2285 18.7076V21.6233C18.2304 21.6533 18.2164 21.6823 18.1929 21.7011L12.1613 25.1876C9.47468 26.7364 6.04356 25.8158 4.49001 23.1298H4.48907ZM2.91866 10.0901C3.57417 8.95014 4.60894 8.07826 5.84129 7.62545C5.84129 7.67701 5.83848 7.76795 5.83848 7.8317V14.7326C5.83661 15.0833 6.0239 15.4086 6.32824 15.582L13.6128 19.7923L11.091 21.2501C11.0657 21.267 11.0339 21.2698 11.0058 21.2576L4.97321 17.7683C2.29218 16.2139 1.3726 12.7798 2.91772 10.0911L2.91866 10.0901ZM23.6383 14.9173L16.3538 10.7061L18.8756 9.2492C18.9009 9.23233 18.9327 9.22951 18.9608 9.2417L24.9934 12.7283C27.6791 14.2817 28.5996 17.7214 27.0479 20.4101C26.3915 21.5483 25.3577 22.4201 24.1262 22.8739V15.7667C24.129 15.4161 23.9427 15.0917 23.6393 14.9173H23.6383ZM26.148 11.1355C26.104 11.1083 26.0263 11.0614 25.971 11.0295L20.004 7.57951C19.7016 7.40233 19.327 7.40233 19.0236 7.57951L11.739 11.7908V8.87514C11.7371 8.84514 11.7512 8.81608 11.7746 8.79733L17.8062 5.31358C20.4928 3.76201 23.9277 4.68545 25.4766 7.37608C26.1312 8.51233 26.3681 9.84264 26.1461 11.1355H26.148ZM10.368 16.332L7.84528 14.8742C7.81812 14.8611 7.80033 14.8348 7.79658 14.8048V7.83076C7.79845 4.72576 10.3147 2.20951 13.4162 2.21139C14.7281 2.21139 15.9979 2.67264 17.0065 3.51264C16.9606 3.53701 16.8819 3.58108 16.8295 3.61295L10.8625 7.06295C10.5572 7.23639 10.3699 7.56076 10.3718 7.91233L10.368 16.3301V16.332ZM11.7381 13.3751L14.9828 11.4992L18.2276 13.3742V17.1251L14.9828 19.0001L11.7381 17.1251V13.3751Z" fill="white"/>
</g>
</g>
<defs>
<clipPath id="clip0_222_100487">
<rect width="110.5" height="30" fill="white" transform="translate(0 0.25)"/>
</clipPath>
<clipPath id="clip1_222_100487">
<rect width="110.5" height="30" fill="white" transform="translate(0 0.25)"/>
</clipPath>
</defs>
</svg>
