<svg width="92" height="16" viewBox="0 0 92 16" fill="none" xmlns="http://www.w3.org/2000/svg">
<g clip-path="url(#clip0_222_100227)">
<path d="M26.2334 15.4122C28.4939 15.4122 30.4716 14.2979 31.2531 12.049C31.4056 11.5982 31.1873 11.2989 30.7532 11.2989H29.9058C29.5144 11.2989 29.2548 11.4696 29.0791 11.8338C28.4061 13.1416 27.4709 13.6115 26.298 13.6115C24.2118 13.6115 22.9291 12.1751 22.9291 9.77717C22.9291 7.37798 24.2557 5.9428 26.2528 5.9428C27.4696 5.9428 28.4694 6.45727 29.0998 7.67851C29.2961 8.04272 29.5338 8.21337 29.9265 8.21337H30.7739C31.2079 8.21337 31.4249 7.93575 31.2738 7.52697C30.3618 5.08449 28.3183 4.14214 26.2321 4.14214C23.0815 4.14214 20.7344 6.43563 20.7344 9.77717C20.7344 13.1187 22.973 15.4122 26.2334 15.4122ZM83.1016 8.79152C83.3832 6.97048 84.6439 5.83456 86.3607 5.83456C88.0774 5.83456 89.3601 6.99085 89.5113 8.79152H83.1016ZM86.4498 15.4122C88.4494 15.4122 90.4491 14.4915 91.4269 12.4132C91.6659 11.9204 91.4489 11.5778 91.0149 11.5778H90.2114C89.8213 11.5778 89.581 11.7485 89.3847 12.0923C88.7336 13.2269 87.6033 13.6994 86.4511 13.6994C84.4734 13.6994 83.192 12.3712 83.0396 10.2076H91.0162C91.4502 10.2076 91.7344 9.972 91.7344 9.5212C91.6465 6.15801 89.4312 4.14468 86.3658 4.14468C83.3005 4.14468 80.8681 6.32993 80.8681 9.77971C80.8681 13.2295 83.2372 15.4147 86.4537 15.4147L86.4498 15.4122ZM73.8009 10.0561H74.5179C74.9519 10.0561 75.1909 9.82046 75.2568 9.36966C75.6714 6.4751 77.3894 6.0918 79.2173 6.17712C79.6087 6.19494 79.929 5.8995 79.929 5.51237V4.8489C79.929 4.42102 79.7107 4.16251 79.278 4.14214C77.6607 4.08229 76.2178 4.6286 75.3833 6.17839C75.3368 6.26244 75.209 6.24079 75.1973 6.14528L75.063 4.97625C75.0204 4.54837 74.7814 4.33443 74.3461 4.33443H71.065C70.6814 4.33443 70.3688 4.64133 70.3688 5.02082V5.38503C70.3688 5.76324 70.6801 6.07142 71.065 6.07142H72.4123C72.796 6.07142 73.1086 6.37832 73.1086 6.75781V9.37093C73.1086 9.74915 73.4199 10.0573 73.8048 10.0573H73.8009V10.0561ZM70.8687 15.1983H77.6698C78.1038 15.1983 78.366 14.941 78.366 14.5119V14.1477C78.366 13.7198 78.1051 13.4613 77.6698 13.4613H75.931C75.497 13.4613 75.2348 13.204 75.2348 12.7749V11.5957C75.2348 11.1678 74.9739 10.9093 74.5385 10.9093H73.7996C73.3656 10.9093 73.1034 11.1665 73.1034 11.5957V12.7749C73.1034 13.2028 72.8425 13.4613 72.4071 13.4613H70.8648C70.4308 13.4613 70.1685 13.7185 70.1685 14.1477V14.5119C70.1685 14.9397 70.4295 15.1983 70.8648 15.1983H70.8687ZM60.3719 8.79279C60.6535 6.97175 61.9142 5.83583 63.631 5.83583C65.3477 5.83583 66.6304 6.99212 66.7816 8.79279H60.3719ZM63.7188 15.4135C65.7184 15.4135 67.7181 14.4928 68.6959 12.4145C68.9349 11.9217 68.7179 11.5791 68.2839 11.5791H67.4804C67.089 11.5791 66.85 11.7497 66.6537 12.0936C66.0026 13.2282 64.8723 13.7007 63.7201 13.7007C61.7424 13.7007 60.461 12.3725 60.3086 10.2089H68.2839C68.7179 10.2089 69.0021 9.97328 69.0021 9.52248C68.9142 6.15929 66.6989 4.14596 63.6348 4.14596C60.5695 4.14596 58.1371 6.3312 58.1371 9.78099C58.1371 13.2308 60.5062 15.416 63.7227 15.416L63.7188 15.4135ZM38.5774 15.4135C41.8365 15.4135 44.1629 13.0359 44.1629 9.77844C44.1629 6.52095 41.8365 4.14341 38.5774 4.14341C35.3183 4.14341 32.9918 6.56425 32.9918 9.77844C32.9918 10.5285 33.1223 11.3639 33.5124 12.2846C33.7088 12.7354 34.0782 12.7991 34.4696 12.5202L35.1 12.0694C35.4268 11.8338 35.512 11.5549 35.4035 11.1487C35.2304 10.6138 35.1852 10.1414 35.1852 9.73514C35.1852 7.48623 36.5545 5.9428 38.5748 5.9428C40.5951 5.9428 41.9644 7.4633 41.9644 9.77717C41.9644 12.091 40.6171 13.6115 38.6174 13.6115C37.9212 13.6115 37.2701 13.4829 36.4873 12.9035C36.1605 12.6463 35.8569 12.6042 35.5095 12.8615L35.0315 13.204C34.6401 13.4816 34.5975 13.8675 34.9656 14.168C36.0959 15.0671 37.3993 15.4109 38.5735 15.4109H38.5774V15.4135ZM46.9208 15.1983H47.639C48.0227 15.1983 48.3353 14.8914 48.3353 14.5119V9.39258C48.3353 7.23026 49.5082 5.9428 51.3348 5.9428C52.9856 5.9428 53.9428 7.01505 53.9428 8.98508V14.5131C53.9428 14.8914 54.2541 15.1995 54.6391 15.1995H55.3779C55.7616 15.1995 56.0742 14.8926 56.0742 14.5131V8.64252C56.0742 5.75051 54.5745 4.14468 52.0323 4.14468C50.3013 4.14468 49.2783 4.84254 48.5148 5.81546C48.4567 5.88932 48.3392 5.84856 48.3392 5.75688V1.10241C48.334 0.722918 48.024 0.416016 47.6403 0.416016H46.9221C46.5385 0.416016 46.2259 0.722918 46.2259 1.10241V14.5131C46.2246 14.8901 46.5359 15.1983 46.9208 15.1983Z" fill="white"/>
<mask id="mask0_222_100227" style="mask-type:luminance" maskUnits="userSpaceOnUse" x="0" y="0" width="16" height="16">
<path d="M15.7211 0.25H0.5V15.4346H15.7211V0.25Z" fill="white"/>
</mask>
<g mask="url(#mask0_222_100227)">
<path fill-rule="evenodd" clip-rule="evenodd" d="M5.43283 9.29111C5.8425 9.29111 6.65797 9.2692 7.78359 8.80636C9.0966 8.26746 11.7084 7.28893 13.5913 6.28332C14.9095 5.58069 15.4859 4.64986 15.4859 3.39801C15.4859 1.66011 14.0734 0.250977 12.3313 0.250977H5.03092C2.52767 0.250977 0.5 2.27508 0.5 4.77104C0.5 7.26701 2.40102 9.29111 5.43283 9.29111Z" fill="white"/>
<path fill-rule="evenodd" clip-rule="evenodd" d="M6.66797 12.4034C6.66797 11.1799 7.40589 10.0763 8.53927 9.60706L10.8383 8.6556C13.1632 7.69254 15.7233 9.3982 15.7233 11.9096C15.7233 13.8551 14.1415 15.4331 12.1914 15.4318H9.70237C8.02621 15.4305 6.66797 14.0756 6.66797 12.4034Z" fill="white"/>
<path d="M3.1118 9.88672C1.66956 9.88672 0.5 11.0535 0.5 12.4923V12.8301C0.5 14.2688 1.66956 15.4356 3.1118 15.4356C4.55405 15.4356 5.72361 14.2688 5.72361 12.8301V12.4923C5.72361 11.0535 4.55405 9.88672 3.1118 9.88672Z" fill="white"/>
</g>
</g>
<defs>
<clipPath id="clip0_222_100227">
<rect width="91.5" height="15.5" fill="white" transform="translate(0.5 0.25)"/>
</clipPath>
</defs>
</svg>
