<svg width="150" height="151" viewBox="0 0 150 151" fill="none" xmlns="http://www.w3.org/2000/svg">
<path d="M83.4741 72.5856C85.9041 72.5856 88.3291 72.6006 90.7591 72.5756C91.3591 72.5706 91.6641 72.7106 91.7641 73.3656C92.9341 81.0056 89.3191 90.7456 78.7341 92.8006C68.4341 94.8006 59.6041 87.7806 58.2241 78.3556C56.7991 68.6306 63.3391 59.8856 73.0641 58.5356C78.0041 57.8506 82.3941 59.2306 86.3091 62.2656C86.7941 62.6406 86.7141 62.8306 86.3291 63.2006C84.9991 64.4856 83.6841 65.7806 82.4091 67.1206C81.9691 67.5856 81.6691 67.6506 81.1141 67.2806C79.2991 66.0706 77.2941 65.4106 75.0791 65.4756C69.9491 65.6306 65.8541 69.3806 65.1891 74.5356C64.6641 78.5906 66.7591 82.7506 70.3141 84.7256C73.9741 86.7556 78.9491 86.3956 82.0191 83.8756C83.2641 82.8556 84.0441 81.5406 84.5191 80.0206C84.6991 79.4506 84.6291 79.2556 83.9641 79.2656C81.4041 79.3056 78.8441 79.2606 76.2841 79.2956C75.6241 79.3056 75.3591 79.1856 75.3841 78.4456C75.4441 76.7306 75.4241 75.0156 75.3941 73.3006C75.3841 72.7556 75.5391 72.5756 76.0991 72.5806C78.5541 72.6106 81.0091 72.5906 83.4641 72.5906L83.4741 72.5856Z" fill="white"/>
</svg>
